<?xml version="1.0" encoding="UTF-8"?>
<svg id="Layer_1" data-name="Layer 1" xmlns="http://www.w3.org/2000/svg" viewBox="0 0 557.07 480.54">
  <defs>
    <style>
      .cls-1 {
        fill: #172a3b;
        stroke-width: 0px;
      }
    </style>
  </defs>
  <g>
    <path class="cls-1" d="m132.98,480.54H0v-32.23h3.76c9.36,0,17.34-1.74,23.71-5.19,6.35-3.41,12.61-10.14,18.62-20.01,4.74-7.87,9.79-18.23,15.01-30.78L172.28,101.8h30.69l59.68,152.63-7,2.74-57.81-147.85h-20.38l-13.48,35.34-95.9,250.46c-5.39,12.98-10.62,23.68-15.56,31.89-6.82,11.19-13.85,18.62-21.49,22.73-6.58,3.56-14.47,5.57-23.52,6v17.28h117.93v-17.24c-9.96-.3-18.9-1.78-26.61-4.44-6.87-2.35-15.06-8.42-15.06-23.97,0-6.4,2.54-16.24,7.76-30.06l18.96-49.98,7.03,2.67-18.96,49.98c-4.83,12.78-7.28,21.99-7.28,27.4,0,12.05,5.7,15.4,9.98,16.86,7.88,2.71,17.28,4.08,27.93,4.08h3.76v32.23Z"/>
    <rect class="cls-1" x="206.76" y="98.9" width="7.52" height="197.45" transform="translate(-57.16 89.36) rotate(-21.17)"/>
    <rect class="cls-1" x="295.18" y="371.3" width="7.52" height="109.17" transform="translate(-133.59 136.65) rotate(-21.16)"/>
    <rect class="cls-1" x="191.51" y="136.82" width="7.52" height="192.87" transform="translate(-71.02 86.2) rotate(-21.16)"/>
    <rect class="cls-1" x="266.07" y="371.3" width="7.52" height="109.17" transform="translate(-135.56 126.14) rotate(-21.16)"/>
    <rect class="cls-1" x="239.86" y="376.92" width="7.52" height="103.56" transform="translate(-141.71 121.04) rotate(-21.79)"/>
  </g>
  <g>
    <g>
      <rect class="cls-1" x="184.5" y="371.22" width="121.28" height="7.52"/>
      <path class="cls-1" d="m376.33,480.54h-179.16v-32.23h3.76c14.08,0,24.37-.98,30.59-2.91,5.04-1.57,7.28-4.98,7.28-11.04,0-4.88-.98-9.79-2.98-15.01l-16.22-40.61h-115.54v-7.52h120.63l18.14,45.39c2.36,6.14,3.5,11.93,3.5,17.75,0,11.81-6.83,16.43-12.57,18.22-6.45,2.01-15.98,3.06-29.06,3.23v17.21h164.12v-17.25c-10.94-.37-19.49-2.41-26.06-6.19-7.23-4.23-12.95-10.25-17.01-17.89-3.83-7.21-9.68-20.64-17.88-41.06l-14.78-37.82c-4.88-.76-9.41-1.86-13.5-3.28-6.85-2.35-15.05-8.41-15.05-23.97,0-6.31,2.44-15.89,7.46-29.26.2-.55.28-.75.37-.95l70.55-185.98,55.85,141.25h-101.39l-18.04,47.55c-.2.53-.27.74-.36.95-4.56,12.17-6.91,21.13-6.91,26.45,0,12.05,5.7,15.4,9.98,16.86,4.24,1.47,9.02,2.57,14.24,3.25l2.2.29,16.38,41.9c7.97,19.85,13.87,33.42,17.53,40.29,3.45,6.49,8.08,11.37,14.15,14.92,6.02,3.47,14.79,5.24,26.04,5.24h3.76v32.23Zm-76.12-237.45h87.48l-44.64-112.9-42.83,112.9Z"/>
      <path class="cls-1" d="m557.07,378.74h-179.16v-32.23h3.76c14.07,0,24.36-.98,30.59-2.92,5.04-1.57,7.28-4.98,7.28-11.04,0-4.89-.98-9.8-2.98-15.01l-16.22-40.61h-115.54l-.04-7.52h120.67l18.13,45.39c2.36,6.13,3.5,11.93,3.5,17.76,0,11.81-6.83,16.43-12.57,18.22-6.45,2.01-15.98,3.07-29.06,3.24v17.21h164.12v-17.25c-10.94-.37-19.49-2.41-26.06-6.2-7.23-4.23-12.95-10.25-17.01-17.89-3.85-7.23-9.7-20.66-17.88-41.06L378.58,7.52h-20.38l-13.48,35.34-95.89,250.45c-5.24,12.56-10.26,22.92-14.99,30.92v.58l-.81.79c-6.48,10.58-13.18,17.75-20.46,21.89-.13.1-.53.33-.88.5-5.48,2.94-11.8,4.43-18.8,4.43h-84.32l53.59-141.24,50.33,127.33c4.69-3.64,9.32-9.1,13.78-16.29v-.55l.8-.77c4.63-7.76,9.59-17.97,14.76-30.35l.82-2.17L353.02,0h30.69l111.88,286.06c7.96,19.83,13.86,33.4,17.53,40.29,3.45,6.48,8.07,11.36,14.15,14.92,6.02,3.47,14.79,5.24,26.04,5.24h3.76v32.23Zm-437.6-33.85h73.42c4.74,0,9.21-.86,13.06-2.49l-43.64-110.41-42.83,112.9Z"/>
    </g>
    <polygon class="cls-1" points="499.37 378.72 496.75 378.72 352.09 5.14 359.1 2.42 502.84 373.6 499.35 374.95 499.37 378.72"/>
    <polygon class="cls-1" points="470.26 378.72 467.68 378.72 466.71 376.32 337.68 42.86 344.7 40.14 473.73 373.6 470.24 374.95 470.26 378.72"/>
    <rect class="cls-1" x="420.58" y="275.14" width="7.52" height="103.52" transform="translate(-91.04 180.92) rotate(-21.79)"/>
  </g>
</svg>